<svg width="1200" height="630" viewBox="0 0 1200 630" fill="none" xmlns="http://www.w3.org/2000/svg">
  <rect width="1200" height="630" fill="#2e2e43"/>
  
  <rect x="0" y="0" width="1200" height="630" fill="url(#grid)" opacity="0.1"/>
  
  <defs>
    <pattern id="grid" width="40" height="40" patternUnits="userSpaceOnUse">
      <path d="M 40 0 L 0 0 0 40" fill="none" stroke="#42425a" stroke-width="1"/>
    </pattern>
  </defs>
  
  <g transform="translate(480, 180)">
    <path fill-rule="evenodd" clip-rule="evenodd" d="M-72,-56 A16,16 0 0 1 -56,-72 H56 A16,16 0 0 1 72,-56 V-32 H50.8 A60,60 0 1 0 50.8,32 H72 V56 A16,16 0 0 1 56,72 H-56 A16,16 0 0 1 -72,56 V-56 Z" fill="#7fbbdc"/>
    <circle cx="0" cy="0" r="46" fill="white"/>
    <rect x="0" y="-20" width="96" height="40" rx="12" fill="white"/>
  </g>
  
  <text x="600" y="380" text-anchor="middle" fill="white" font-family="monospace" font-size="72" font-weight="bold">
    <tspan fill="#7fbbdc">CL</tspan><tspan>TANKS</tspan>
  </text>
  
  <text x="600" y="440" text-anchor="middle" fill="#a9bcbf" font-family="sans-serif" font-size="28" font-weight="300">
    Multiplayer Typing Game
  </text>
  
  <text x="600" y="490" text-anchor="middle" fill="#96dc7f" font-family="monospace" font-size="20">
    $ fire • $ drive north 10 • $ track a4
  </text>
  
  <rect x="440" y="540" width="320" height="50" rx="8" fill="#7fbbdc"/>
  <text x="600" y="572" text-anchor="middle" fill="white" font-family="sans-serif" font-size="20" font-weight="bold">
    Play Free at cltanks.io
  </text>
</svg>
